<?xml version="1.0" standalone="no"?>
<!DOCTYPE svg PUBLIC "-//W3C//DTD SVG 20010904//EN"
 "http://www.w3.org/TR/2001/REC-SVG-20010904/DTD/svg10.dtd">
<svg version="1.0" xmlns="http://www.w3.org/2000/svg"
 width="1564.402026pt" height="540.936222pt" viewBox="0 0 1564.402026 540.936222"
 preserveAspectRatio="xMidYMid meet">
<metadata>
Created by potrace 1.16, written by Peter Selinger 2001-2019
</metadata>
<g transform="translate(-205.506348,610.152879) scale(0.100000,-0.100000)"
fill="#000000" stroke="none">
<path d="M9053 6087 c-12 -7 -39 -32 -60 -57 -21 -25 -139 -160 -263 -300
-316 -358 -447 -509 -684 -790 -114 -135 -242 -285 -284 -335 -311 -361 -730
-810 -1139 -1218 l-278 -277 -65 -5 c-36 -3 -158 -12 -272 -20 -792 -56 -1652
-202 -2267 -384 -838 -249 -1403 -592 -1600 -971 -194 -372 -49 -769 336 -923
184 -73 462 -74 733 -1 720 191 1806 911 2868 1899 107 99 220 204 253 233
l58 53 133 10 c73 5 344 12 602 16 l469 6 -6 -24 c-3 -13 -35 -109 -71 -214
-295 -856 -302 -1498 -22 -1872 128 -169 352 -259 511 -205 38 13 50 22 50 37
0 17 -9 21 -69 27 -201 20 -317 101 -406 283 -183 376 -106 1021 220 1848 35
90 46 107 64 107 45 0 318 -21 471 -35 303 -29 664 -93 925 -164 192 -52 196
-54 203 -88 9 -47 82 -128 205 -227 180 -144 184 -118 -31 -225 -481 -240
-862 -515 -899 -647 -12 -46 14 -101 62 -129 139 -80 649 70 975 287 267 178
369 351 305 520 -11 29 -16 55 -12 59 29 27 756 317 800 319 2 0 -28 -37 -66
-82 -188 -227 -262 -397 -217 -498 43 -96 135 -126 246 -80 107 45 376 238
704 505 174 141 229 181 222 159 -3 -10 -22 -59 -43 -109 -53 -129 -72 -252
-51 -326 33 -112 95 -154 216 -147 125 7 286 87 706 347 132 82 241 148 243
146 1 -1 -35 -63 -81 -136 -148 -235 -162 -271 -132 -329 20 -40 53 -60 95
-60 49 1 53 4 281 211 344 313 502 444 671 555 98 65 219 127 271 140 56 13
35 -39 -115 -290 -108 -180 -168 -300 -168 -336 0 -34 38 -91 70 -107 61 -31
86 -18 254 128 242 211 302 261 392 329 103 78 233 161 288 184 50 21 48 7
-14 -148 -77 -191 -93 -280 -64 -376 41 -137 155 -197 316 -166 158 31 361
125 633 295 87 55 160 99 161 98 1 -1 -7 -36 -18 -77 -35 -135 -12 -238 70
-312 54 -49 101 -63 202 -62 194 2 427 82 965 330 390 181 789 385 793 407 8
42 -27 30 -636 -217 -533 -217 -815 -310 -1014 -334 -153 -19 -217 22 -189
121 38 128 173 311 398 536 193 194 198 202 143 265 -35 40 -72 51 -138 41
-43 -6 -55 -15 -143 -106 -108 -111 -194 -217 -287 -352 l-63 -92 -127 -73
c-398 -228 -751 -358 -842 -310 -64 34 -59 111 19 291 95 219 95 338 0 389
-101 54 -245 -16 -642 -316 -92 -69 -170 -126 -173 -126 -3 0 4 15 16 34 50
81 119 236 131 293 29 142 -50 232 -178 202 -151 -36 -516 -272 -851 -552 -46
-38 -85 -67 -87 -66 -4 4 270 382 328 452 39 48 49 97 24 127 -23 29 -61 50
-93 50 -72 0 -92 -16 -201 -164 -58 -77 -112 -153 -121 -169 -17 -28 -47 -47
-357 -222 -407 -231 -675 -341 -750 -307 -22 10 -25 18 -25 59 0 67 14 110 80
254 80 173 94 221 75 265 -8 19 -24 39 -37 44 -21 10 -23 17 -20 64 11 167
-166 259 -388 201 -135 -35 -352 -166 -481 -292 l-56 -54 -294 -98 c-246 -82
-498 -177 -681 -255 -37 -16 -37 -16 -57 13 -12 16 -73 75 -136 131 -124 110
-171 173 -161 215 37 148 602 393 798 347 29 -7 63 -15 75 -18 32 -9 73 35 73
79 0 94 -160 198 -279 181 -261 -37 -608 -196 -778 -357 -69 -66 -123 -148
-123 -188 0 -16 -6 -16 -72 7 -315 107 -752 185 -1293 229 -104 9 -191 17
-192 19 -7 7 104 251 215 475 161 321 273 526 622 1137 325 568 410 724 465
853 101 238 110 367 31 452 -65 69 -118 87 -173 56z m-73 -304 c-34 -107 -197
-420 -430 -828 -178 -312 -232 -408 -342 -615 -202 -378 -373 -739 -517 -1090
l-51 -125 -560 0 -560 0 144 145 c359 364 793 846 1303 1449 267 316 452 528
602 691 146 159 411 423 418 416 3 -2 0 -22 -7 -43z m-2816 -2832 c-907 -846
-2246 -1707 -2970 -1910 -439 -122 -771 -61 -892 167 -174 325 117 740 736
1051 649 326 1679 576 2842 691 219 21 292 27 299 22 3 -1 -4 -11 -15 -21z
m5591 -36 c42 -41 33 -73 -33 -122 -31 -23 -109 -80 -172 -128 -185 -140 -336
-246 -473 -334 -131 -84 -273 -158 -284 -148 -22 23 98 206 221 334 93 98 234
218 341 290 180 121 344 165 400 108z m-1859 -679 c28 -153 -336 -430 -745
-567 -130 -43 -271 -63 -271 -39 0 36 207 202 400 322 180 111 566 316 597
318 7 0 15 -15 19 -34z"/>
<path d="M16759 4441 c-96 -31 -213 -219 -195 -315 16 -82 114 -117 189 -66
21 14 40 35 43 47 5 18 53 67 152 153 76 66 -79 215 -189 181z"/>
</g>
</svg>
